<svg xmlns="http://www.w3.org/2000/svg" xmlns:xlink="http://www.w3.org/1999/xlink" width="750" height="500" preserveAspectRatio="xMidYMid meet" version="1.0" viewBox="0 0 562.5 375" zoomAndPan="magnify"><defs><clipPath id="19c2f86675"><path d="M 1 112.667969 L 217 112.667969 L 217 262.667969 L 1 262.667969 Z M 1 112.667969" clip-rule="nonzero"/></clipPath><clipPath id="ddd34bc306"><path d="M 14.917969 262.632812 L 202.695312 262.632812 C 203.511719 262.632812 204.324219 262.558594 205.125 262.414062 C 205.929688 262.265625 206.714844 262.050781 207.480469 261.765625 C 208.242188 261.480469 208.976562 261.128906 209.679688 260.714844 C 210.382812 260.296875 211.042969 259.820312 211.660156 259.289062 C 212.277344 258.753906 212.84375 258.167969 213.359375 257.535156 C 213.871094 256.898438 214.324219 256.222656 214.71875 255.507812 C 215.113281 254.789062 215.441406 254.046875 215.699219 253.269531 C 215.960938 252.496094 216.152344 251.707031 216.269531 250.898438 C 216.390625 250.089844 216.4375 249.277344 216.414062 248.460938 C 216.386719 247.644531 216.292969 246.835938 216.121094 246.035156 C 215.953125 245.234375 215.714844 244.457031 215.40625 243.699219 C 215.101562 242.945312 214.726562 242.21875 214.292969 241.527344 C 213.855469 240.839844 213.359375 240.191406 212.808594 239.589844 C 212.257812 238.988281 211.65625 238.4375 211.007812 237.941406 C 210.359375 237.449219 209.667969 237.015625 208.941406 236.640625 C 208.214844 236.269531 207.460938 235.964844 206.679688 235.726562 L 206.679688 128.710938 C 206.679688 128.183594 206.65625 127.660156 206.605469 127.136719 C 206.550781 126.613281 206.476562 126.09375 206.371094 125.578125 C 206.269531 125.0625 206.144531 124.554688 205.992188 124.050781 C 205.839844 123.550781 205.660156 123.054688 205.460938 122.570312 C 205.257812 122.085938 205.035156 121.609375 204.789062 121.148438 C 204.539062 120.683594 204.269531 120.234375 203.980469 119.796875 C 203.6875 119.359375 203.375 118.9375 203.042969 118.53125 C 202.710938 118.125 202.355469 117.738281 201.984375 117.367188 C 201.613281 116.992188 201.226562 116.640625 200.820312 116.308594 C 200.414062 115.976562 199.992188 115.664062 199.554688 115.371094 C 199.121094 115.078125 198.671875 114.808594 198.207031 114.5625 C 197.746094 114.3125 197.269531 114.089844 196.785156 113.886719 C 196.300781 113.6875 195.804688 113.511719 195.304688 113.355469 C 194.800781 113.203125 194.292969 113.078125 193.777344 112.976562 C 193.261719 112.871094 192.746094 112.796875 192.222656 112.742188 C 191.699219 112.691406 191.175781 112.667969 190.652344 112.667969 L 26.917969 112.667969 C 26.394531 112.667969 25.867188 112.691406 25.347656 112.742188 C 24.824219 112.796875 24.304688 112.871094 23.789062 112.976562 C 23.277344 113.078125 22.765625 113.203125 22.265625 113.355469 C 21.761719 113.511719 21.269531 113.6875 20.785156 113.886719 C 20.296875 114.089844 19.824219 114.3125 19.359375 114.5625 C 18.898438 114.808594 18.449219 115.078125 18.011719 115.371094 C 17.574219 115.664062 17.15625 115.976562 16.75 116.308594 C 16.34375 116.640625 15.953125 116.992188 15.582031 117.367188 C 15.210938 117.738281 14.859375 118.125 14.527344 118.53125 C 14.195312 118.9375 13.882812 119.359375 13.589844 119.796875 C 13.296875 120.234375 13.027344 120.683594 12.78125 121.148438 C 12.535156 121.609375 12.308594 122.085938 12.109375 122.570312 C 11.90625 123.054688 11.730469 123.550781 11.578125 124.050781 C 11.425781 124.554688 11.296875 125.0625 11.195312 125.578125 C 11.09375 126.09375 11.015625 126.613281 10.964844 127.136719 C 10.914062 127.660156 10.886719 128.183594 10.886719 128.710938 L 10.886719 235.726562 C 10.105469 235.964844 9.351562 236.269531 8.625 236.644531 C 7.894531 237.015625 7.207031 237.449219 6.558594 237.945312 C 5.90625 238.441406 5.304688 238.992188 4.753906 239.597656 C 4.203125 240.199219 3.707031 240.847656 3.269531 241.539062 C 2.835938 242.230469 2.464844 242.957031 2.15625 243.714844 C 1.847656 244.472656 1.609375 245.25 1.441406 246.050781 C 1.273438 246.851562 1.179688 247.660156 1.15625 248.480469 C 1.128906 249.296875 1.179688 250.109375 1.300781 250.917969 C 1.421875 251.730469 1.613281 252.519531 1.875 253.296875 C 2.136719 254.070312 2.46875 254.816406 2.863281 255.53125 C 3.257812 256.25 3.714844 256.921875 4.230469 257.558594 C 4.746094 258.191406 5.3125 258.777344 5.933594 259.308594 C 6.554688 259.84375 7.214844 260.316406 7.921875 260.730469 C 8.625 261.148438 9.359375 261.496094 10.128906 261.78125 C 10.894531 262.0625 11.679688 262.277344 12.484375 262.421875 C 13.289062 262.5625 14.101562 262.632812 14.917969 262.632812 Z M 20.09375 128.710938 C 20.09375 128.257812 20.136719 127.8125 20.226562 127.367188 C 20.3125 126.925781 20.445312 126.496094 20.617188 126.078125 C 20.789062 125.660156 21 125.265625 21.25 124.890625 C 21.503906 124.515625 21.785156 124.167969 22.105469 123.847656 C 22.425781 123.527344 22.773438 123.242188 23.148438 122.992188 C 23.523438 122.742188 23.917969 122.53125 24.335938 122.355469 C 24.75 122.183594 25.179688 122.054688 25.625 121.964844 C 26.066406 121.878906 26.511719 121.832031 26.964844 121.832031 L 190.695312 121.832031 C 191.148438 121.832031 191.59375 121.878906 192.035156 121.964844 C 192.480469 122.054688 192.910156 122.183594 193.324219 122.355469 C 193.742188 122.53125 194.136719 122.742188 194.511719 122.992188 C 194.886719 123.242188 195.234375 123.527344 195.554688 123.847656 C 195.875 124.167969 196.160156 124.515625 196.410156 124.890625 C 196.660156 125.265625 196.871094 125.660156 197.042969 126.078125 C 197.214844 126.496094 197.347656 126.925781 197.433594 127.367188 C 197.523438 127.8125 197.566406 128.257812 197.566406 128.710938 L 197.566406 235.128906 L 20.09375 235.128906 Z M 14.917969 244.296875 L 202.695312 244.296875 C 202.996094 244.296875 203.292969 244.328125 203.589844 244.386719 C 203.882812 244.445312 204.171875 244.53125 204.449219 244.644531 C 204.726562 244.761719 204.992188 244.902344 205.242188 245.070312 C 205.492188 245.238281 205.722656 245.425781 205.933594 245.640625 C 206.148438 245.851562 206.335938 246.085938 206.503906 246.335938 C 206.671875 246.585938 206.8125 246.847656 206.925781 247.128906 C 207.042969 247.40625 207.128906 247.691406 207.1875 247.988281 C 207.246094 248.28125 207.277344 248.582031 207.277344 248.882812 C 207.277344 249.183594 207.246094 249.480469 207.1875 249.777344 C 207.128906 250.070312 207.042969 250.355469 206.925781 250.636719 C 206.8125 250.914062 206.671875 251.175781 206.503906 251.425781 C 206.335938 251.679688 206.148438 251.910156 205.933594 252.121094 C 205.722656 252.335938 205.492188 252.523438 205.242188 252.691406 C 204.992188 252.859375 204.726562 253 204.449219 253.117188 C 204.171875 253.230469 203.882812 253.316406 203.589844 253.375 C 203.292969 253.433594 202.996094 253.464844 202.695312 253.464844 L 14.917969 253.464844 C 14.617188 253.464844 14.320312 253.433594 14.023438 253.375 C 13.730469 253.316406 13.445312 253.230469 13.164062 253.117188 C 12.886719 253 12.625 252.859375 12.375 252.691406 C 12.125 252.523438 11.890625 252.335938 11.679688 252.121094 C 11.46875 251.910156 11.277344 251.679688 11.109375 251.425781 C 10.941406 251.175781 10.800781 250.914062 10.6875 250.636719 C 10.570312 250.355469 10.484375 250.070312 10.425781 249.777344 C 10.367188 249.480469 10.339844 249.183594 10.339844 248.882812 C 10.339844 248.582031 10.367188 248.28125 10.425781 247.988281 C 10.484375 247.691406 10.570312 247.40625 10.6875 247.128906 C 10.800781 246.847656 10.941406 246.585938 11.109375 246.335938 C 11.277344 246.085938 11.46875 245.851562 11.679688 245.640625 C 11.890625 245.425781 12.125 245.238281 12.375 245.070312 C 12.625 244.902344 12.886719 244.761719 13.164062 244.644531 C 13.445312 244.53125 13.730469 244.445312 14.023438 244.386719 C 14.320312 244.328125 14.617188 244.296875 14.917969 244.296875 Z M 14.917969 244.296875" clip-rule="nonzero"/></clipPath><clipPath id="6e382961f1"><path d="M 58.019531 127.570312 L 160.019531 127.570312 L 160.019531 229.570312 L 58.019531 229.570312 Z M 58.019531 127.570312" clip-rule="nonzero"/></clipPath></defs><g clip-path="url(#19c2f86675)"><g clip-path="url(#ddd34bc306)"><path fill="snow" fill-opacity="1" fill-rule="nonzero" d="M 1.128906 112.667969 L 1.128906 262.632812 L 216.4375 262.632812 L 216.4375 112.667969 Z M 1.128906 112.667969"/></g></g><g clip-path="url(#6e382961f1)"><path fill="#fca311" fill-opacity="1" fill-rule="nonzero" d="M 109.019531 229.570312 C 80.898438 229.570312 58.019531 206.691406 58.019531 178.570312 C 58.019531 150.449219 80.898438 127.570312 109.019531 127.570312 C 137.140625 127.570312 160.019531 150.449219 160.019531 178.570312 C 160.019531 206.691406 137.140625 229.570312 109.019531 229.570312 Z M 109.019531 229.570312"/></g><path fill="snow" fill-opacity="1" fill-rule="nonzero" d="M 94.875 192.101562 C 94.117188 192.101562 93.355469 191.859375 92.710938 191.363281 L 79.863281 181.53125 C 78.992188 180.867188 78.476562 179.835938 78.464844 178.742188 C 78.453125 177.648438 78.945312 176.605469 79.796875 175.921875 L 92.378906 165.824219 C 93.917969 164.589844 96.160156 164.835938 97.390625 166.375 C 98.625 167.910156 98.378906 170.152344 96.84375 171.386719 L 87.8125 178.636719 L 97.042969 185.703125 C 98.609375 186.898438 98.90625 189.136719 97.707031 190.699219 C 97.007812 191.617188 95.945312 192.101562 94.875 192.101562 Z M 94.875 192.101562"/><path fill="snow" fill-opacity="1" fill-rule="nonzero" d="M 123.164062 192.101562 C 122.09375 192.101562 121.03125 191.617188 120.328125 190.699219 C 119.132812 189.136719 119.429688 186.898438 120.992188 185.703125 L 130.226562 178.636719 L 121.195312 171.386719 C 119.660156 170.152344 119.414062 167.910156 120.644531 166.375 C 121.878906 164.835938 124.125 164.589844 125.65625 165.824219 L 138.238281 175.921875 C 139.09375 176.605469 139.585938 177.648438 139.574219 178.742188 C 139.558594 179.839844 139.042969 180.867188 138.175781 181.53125 L 125.328125 191.363281 C 124.683594 191.859375 123.921875 192.101562 123.164062 192.101562 Z M 123.164062 192.101562"/><path fill="snow" fill-opacity="1" fill-rule="nonzero" d="M 103.222656 198.925781 C 102.914062 198.925781 102.597656 198.886719 102.285156 198.800781 C 100.386719 198.285156 99.261719 196.328125 99.777344 194.425781 L 108.882812 160.84375 C 109.394531 158.945312 111.355469 157.820312 113.257812 158.335938 C 115.15625 158.851562 116.28125 160.808594 115.765625 162.710938 L 106.660156 196.292969 C 106.230469 197.878906 104.792969 198.925781 103.222656 198.925781 Z M 103.222656 198.925781"/><g fill="#fca311" fill-opacity="1"><g><g><path d="M 23.40625 -3.84375 L 1.5625 -13.546875 L 1.5625 -17.265625 L 23.40625 -28.203125 L 23.40625 -21.78125 L 10 -15.671875 L 23.40625 -10.21875 Z M 23.40625 -3.84375" transform="translate(219.223022, 204.2688)"/></g></g></g><g fill="#fff" fill-opacity="1"><g><g><path d="M 22.796875 0 L 21.234375 -5.921875 L 10.96875 -5.921875 L 9.375 0 L 0 0 L 10.3125 -31.71875 L 21.6875 -31.71875 L 32.125 0 Z M 19.46875 -12.921875 L 18.109375 -18.109375 C 17.785156 -19.253906 17.394531 -20.742188 16.9375 -22.578125 C 16.488281 -24.410156 16.191406 -25.722656 16.046875 -26.515625 C 15.921875 -25.773438 15.664062 -24.5625 15.28125 -22.875 C 14.90625 -21.195312 14.0625 -17.878906 12.75 -12.921875 Z M 19.46875 -12.921875" transform="translate(255.744849, 204.2688)"/></g></g></g><g fill="#fff" fill-opacity="1"><g><g><path d="M 17.875 -24.90625 C 20.53125 -24.90625 22.640625 -23.789062 24.203125 -21.5625 C 25.765625 -19.332031 26.546875 -16.242188 26.546875 -12.296875 C 26.546875 -8.316406 25.757812 -5.195312 24.1875 -2.9375 C 22.613281 -0.6875 20.421875 0.4375 17.609375 0.4375 C 16.703125 0.4375 15.894531 0.335938 15.1875 0.140625 C 14.476562 -0.0546875 13.847656 -0.328125 13.296875 -0.671875 C 12.742188 -1.015625 12.097656 -1.585938 11.359375 -2.390625 L 10.84375 -2.390625 L 9.5 0 L 2.921875 0 L 2.921875 -33.625 L 11.359375 -33.625 L 11.359375 -26.015625 C 11.359375 -25.109375 11.257812 -23.546875 11.0625 -21.328125 L 11.359375 -21.328125 C 12.179688 -22.597656 13.128906 -23.507812 14.203125 -24.0625 C 15.273438 -24.625 16.5 -24.90625 17.875 -24.90625 Z M 14.78125 -18.28125 C 13.59375 -18.28125 12.722656 -17.867188 12.171875 -17.046875 C 11.628906 -16.222656 11.359375 -14.9375 11.359375 -13.1875 L 11.359375 -11.984375 C 11.359375 -9.984375 11.628906 -8.546875 12.171875 -7.671875 C 12.722656 -6.804688 13.617188 -6.375 14.859375 -6.375 C 15.859375 -6.375 16.625 -6.878906 17.15625 -7.890625 C 17.6875 -8.910156 17.953125 -10.40625 17.953125 -12.375 C 17.953125 -16.3125 16.894531 -18.28125 14.78125 -18.28125 Z M 14.78125 -18.28125" transform="translate(287.865068, 204.2688)"/></g></g></g><g fill="#fca311" fill-opacity="1"><g><g><path d="M 30.234375 -16.46875 C 30.234375 -11.195312 28.78125 -7.132812 25.875 -4.28125 C 22.96875 -1.425781 18.890625 0 13.640625 0 L 3.40625 0 L 3.40625 -31.59375 L 14.34375 -31.59375 C 19.414062 -31.59375 23.332031 -30.296875 26.09375 -27.703125 C 28.851562 -25.109375 30.234375 -21.363281 30.234375 -16.46875 Z M 21.375 -16.15625 C 21.375 -19.050781 20.800781 -21.195312 19.65625 -22.59375 C 18.507812 -24 16.769531 -24.703125 14.4375 -24.703125 L 11.953125 -24.703125 L 11.953125 -7 L 13.84375 -7 C 16.4375 -7 18.335938 -7.75 19.546875 -9.25 C 20.765625 -10.757812 21.375 -13.0625 21.375 -16.15625 Z M 21.375 -16.15625" transform="translate(316.311854, 204.2688)"/></g></g></g><g fill="#fca311" fill-opacity="1"><g><g><path d="M 14.734375 0.4375 C 10.660156 0.4375 7.492188 -0.644531 5.234375 -2.8125 C 2.984375 -4.988281 1.859375 -8.078125 1.859375 -12.078125 C 1.859375 -16.210938 2.898438 -19.382812 4.984375 -21.59375 C 7.078125 -23.800781 10.0625 -24.90625 13.9375 -24.90625 C 17.625 -24.90625 20.472656 -23.941406 22.484375 -22.015625 C 24.492188 -20.097656 25.5 -17.332031 25.5 -13.71875 L 25.5 -9.953125 L 10.390625 -9.953125 C 10.453125 -8.585938 10.953125 -7.515625 11.890625 -6.734375 C 12.835938 -5.960938 14.125 -5.578125 15.75 -5.578125 C 17.238281 -5.578125 18.601562 -5.71875 19.84375 -6 C 21.09375 -6.28125 22.441406 -6.757812 23.890625 -7.4375 L 23.890625 -1.359375 C 22.566406 -0.679688 21.195312 -0.210938 19.78125 0.046875 C 18.375 0.304688 16.691406 0.4375 14.734375 0.4375 Z M 14.234375 -19.171875 C 13.242188 -19.171875 12.410156 -18.851562 11.734375 -18.21875 C 11.066406 -17.59375 10.675781 -16.613281 10.5625 -15.28125 L 17.828125 -15.28125 C 17.796875 -16.457031 17.457031 -17.398438 16.8125 -18.109375 C 16.175781 -18.816406 15.316406 -19.171875 14.234375 -19.171875 Z M 14.234375 -19.171875" transform="translate(348.777684, 204.2688)"/></g></g></g><g fill="#fca311" fill-opacity="1"><g><g><path d="M 9.328125 0 L 0 -24.484375 L 8.8125 -24.484375 L 12.96875 -10 C 12.976562 -9.925781 13.003906 -9.800781 13.046875 -9.625 C 13.085938 -9.457031 13.128906 -9.253906 13.171875 -9.015625 C 13.222656 -8.785156 13.265625 -8.535156 13.296875 -8.265625 C 13.335938 -7.992188 13.359375 -7.742188 13.359375 -7.515625 L 13.5 -7.515625 C 13.5 -8.265625 13.628906 -9.078125 13.890625 -9.953125 L 18.234375 -24.484375 L 27.03125 -24.484375 L 17.703125 0 Z M 9.328125 0" transform="translate(376.124147, 204.2688)"/></g></g></g><g fill="#fff" fill-opacity="1"><g><g><path d="M 37.53125 0 L 27.4375 0 L 24.421875 -13.765625 C 24.273438 -14.335938 24.046875 -15.476562 23.734375 -17.1875 C 23.421875 -18.90625 23.191406 -20.34375 23.046875 -21.5 C 22.929688 -20.5625 22.742188 -19.394531 22.484375 -18 C 22.234375 -16.613281 21.976562 -15.335938 21.71875 -14.171875 C 21.46875 -13.003906 20.421875 -8.28125 18.578125 0 L 8.484375 0 L 0.671875 -31.59375 L 8.90625 -31.59375 L 12.34375 -15.75 C 13.113281 -12.25 13.644531 -9.460938 13.9375 -7.390625 C 14.125 -8.859375 14.457031 -10.851562 14.9375 -13.375 C 15.425781 -15.894531 15.878906 -17.984375 16.296875 -19.640625 L 19.078125 -31.59375 L 26.984375 -31.59375 L 29.6875 -19.640625 C 30.144531 -17.722656 30.613281 -15.507812 31.09375 -13 C 31.570312 -10.5 31.890625 -8.628906 32.046875 -7.390625 C 32.234375 -8.984375 32.742188 -11.753906 33.578125 -15.703125 L 37.078125 -31.59375 L 45.3125 -31.59375 Z M 37.53125 0" transform="translate(403.139545, 204.2688)"/></g></g></g><g fill="#fff" fill-opacity="1"><g><g><path d="M 14.734375 0.4375 C 10.660156 0.4375 7.492188 -0.644531 5.234375 -2.8125 C 2.984375 -4.988281 1.859375 -8.078125 1.859375 -12.078125 C 1.859375 -16.210938 2.898438 -19.382812 4.984375 -21.59375 C 7.078125 -23.800781 10.0625 -24.90625 13.9375 -24.90625 C 17.625 -24.90625 20.472656 -23.941406 22.484375 -22.015625 C 24.492188 -20.097656 25.5 -17.332031 25.5 -13.71875 L 25.5 -9.953125 L 10.390625 -9.953125 C 10.453125 -8.585938 10.953125 -7.515625 11.890625 -6.734375 C 12.835938 -5.960938 14.125 -5.578125 15.75 -5.578125 C 17.238281 -5.578125 18.601562 -5.71875 19.84375 -6 C 21.09375 -6.28125 22.441406 -6.757812 23.890625 -7.4375 L 23.890625 -1.359375 C 22.566406 -0.679688 21.195312 -0.210938 19.78125 0.046875 C 18.375 0.304688 16.691406 0.4375 14.734375 0.4375 Z M 14.234375 -19.171875 C 13.242188 -19.171875 12.410156 -18.851562 11.734375 -18.21875 C 11.066406 -17.59375 10.675781 -16.613281 10.5625 -15.28125 L 17.828125 -15.28125 C 17.796875 -16.457031 17.457031 -17.398438 16.8125 -18.109375 C 16.175781 -18.816406 15.316406 -19.171875 14.234375 -19.171875 Z M 14.234375 -19.171875" transform="translate(449.105796, 204.2688)"/></g></g></g><g fill="#fff" fill-opacity="1"><g><g><path d="M 17.875 -24.90625 C 20.53125 -24.90625 22.640625 -23.789062 24.203125 -21.5625 C 25.765625 -19.332031 26.546875 -16.242188 26.546875 -12.296875 C 26.546875 -8.316406 25.757812 -5.195312 24.1875 -2.9375 C 22.613281 -0.6875 20.421875 0.4375 17.609375 0.4375 C 16.703125 0.4375 15.894531 0.335938 15.1875 0.140625 C 14.476562 -0.0546875 13.847656 -0.328125 13.296875 -0.671875 C 12.742188 -1.015625 12.097656 -1.585938 11.359375 -2.390625 L 10.84375 -2.390625 L 9.5 0 L 2.921875 0 L 2.921875 -33.625 L 11.359375 -33.625 L 11.359375 -26.015625 C 11.359375 -25.109375 11.257812 -23.546875 11.0625 -21.328125 L 11.359375 -21.328125 C 12.179688 -22.597656 13.128906 -23.507812 14.203125 -24.0625 C 15.273438 -24.625 16.5 -24.90625 17.875 -24.90625 Z M 14.78125 -18.28125 C 13.59375 -18.28125 12.722656 -17.867188 12.171875 -17.046875 C 11.628906 -16.222656 11.359375 -14.9375 11.359375 -13.1875 L 11.359375 -11.984375 C 11.359375 -9.984375 11.628906 -8.546875 12.171875 -7.671875 C 12.722656 -6.804688 13.617188 -6.375 14.859375 -6.375 C 15.859375 -6.375 16.625 -6.878906 17.15625 -7.890625 C 17.6875 -8.910156 17.953125 -10.40625 17.953125 -12.375 C 17.953125 -16.3125 16.894531 -18.28125 14.78125 -18.28125 Z M 14.78125 -18.28125" transform="translate(476.452258, 204.2688)"/></g></g></g><g fill="#fca311" fill-opacity="1"><g><g><path d="M 19.46875 -32.046875 L 7.6875 0.4375 L 0.21875 0.4375 L 11.984375 -32.046875 Z M 19.46875 -32.046875" transform="translate(516.381026, 204.2688)"/></g></g></g><g fill="#fca311" fill-opacity="1"><g><g><path d="M 1.5625 -10.21875 L 14.953125 -15.671875 L 1.5625 -21.78125 L 1.5625 -28.203125 L 23.40625 -17.265625 L 23.40625 -13.546875 L 1.5625 -3.84375 Z M 1.5625 -10.21875" transform="translate(535.929648, 204.2688)"/></g></g></g></svg>