<svg xmlns="http://www.w3.org/2000/svg" xmlns:xlink="http://www.w3.org/1999/xlink" zoomAndPan="magnify" viewBox="0 0 562.5 374.999991" preserveAspectRatio="xMidYMid meet" version="1.0"><defs><g/><clipPath id="2544ef11a3"><path d="M 1 112.667969 L 217 112.667969 L 217 262.667969 L 1 262.667969 Z M 1 112.667969 " clip-rule="nonzero"/></clipPath><clipPath id="9ed60659e6"><path d="M 14.917969 262.632812 L 202.695312 262.632812 C 203.511719 262.632812 204.324219 262.558594 205.125 262.414062 C 205.929688 262.265625 206.714844 262.050781 207.480469 261.765625 C 208.242188 261.480469 208.976562 261.128906 209.679688 260.714844 C 210.382812 260.296875 211.042969 259.820312 211.660156 259.289062 C 212.277344 258.753906 212.84375 258.167969 213.359375 257.535156 C 213.871094 256.898438 214.324219 256.222656 214.71875 255.507812 C 215.113281 254.789062 215.441406 254.046875 215.699219 253.269531 C 215.960938 252.496094 216.152344 251.707031 216.269531 250.898438 C 216.390625 250.089844 216.4375 249.277344 216.414062 248.460938 C 216.386719 247.644531 216.292969 246.835938 216.121094 246.035156 C 215.953125 245.234375 215.714844 244.457031 215.40625 243.699219 C 215.101562 242.945312 214.726562 242.21875 214.292969 241.527344 C 213.855469 240.839844 213.359375 240.191406 212.808594 239.589844 C 212.257812 238.988281 211.65625 238.4375 211.007812 237.941406 C 210.359375 237.449219 209.667969 237.015625 208.941406 236.640625 C 208.214844 236.269531 207.460938 235.964844 206.679688 235.726562 L 206.679688 128.710938 C 206.679688 128.183594 206.65625 127.660156 206.605469 127.136719 C 206.550781 126.613281 206.476562 126.09375 206.371094 125.578125 C 206.269531 125.0625 206.144531 124.554688 205.992188 124.050781 C 205.839844 123.550781 205.660156 123.054688 205.460938 122.570312 C 205.257812 122.085938 205.035156 121.609375 204.789062 121.148438 C 204.539062 120.683594 204.269531 120.234375 203.980469 119.796875 C 203.6875 119.359375 203.375 118.9375 203.042969 118.53125 C 202.710938 118.125 202.355469 117.738281 201.984375 117.367188 C 201.613281 116.992188 201.226562 116.640625 200.820312 116.308594 C 200.414062 115.976562 199.992188 115.664062 199.554688 115.371094 C 199.121094 115.078125 198.671875 114.808594 198.207031 114.5625 C 197.746094 114.3125 197.269531 114.089844 196.785156 113.886719 C 196.300781 113.6875 195.804688 113.511719 195.304688 113.355469 C 194.800781 113.203125 194.292969 113.078125 193.777344 112.976562 C 193.261719 112.871094 192.746094 112.796875 192.222656 112.742188 C 191.699219 112.691406 191.175781 112.667969 190.652344 112.667969 L 26.917969 112.667969 C 26.394531 112.667969 25.867188 112.691406 25.347656 112.742188 C 24.824219 112.796875 24.304688 112.871094 23.789062 112.976562 C 23.277344 113.078125 22.765625 113.203125 22.265625 113.355469 C 21.761719 113.511719 21.269531 113.6875 20.785156 113.886719 C 20.296875 114.089844 19.824219 114.3125 19.359375 114.5625 C 18.898438 114.808594 18.449219 115.078125 18.011719 115.371094 C 17.574219 115.664062 17.15625 115.976562 16.75 116.308594 C 16.34375 116.640625 15.953125 116.992188 15.582031 117.367188 C 15.210938 117.738281 14.859375 118.125 14.527344 118.53125 C 14.195312 118.9375 13.882812 119.359375 13.589844 119.796875 C 13.296875 120.234375 13.027344 120.683594 12.78125 121.148438 C 12.535156 121.609375 12.308594 122.085938 12.109375 122.570312 C 11.90625 123.054688 11.730469 123.550781 11.578125 124.050781 C 11.425781 124.554688 11.296875 125.0625 11.195312 125.578125 C 11.09375 126.09375 11.015625 126.613281 10.964844 127.136719 C 10.914062 127.660156 10.886719 128.183594 10.886719 128.710938 L 10.886719 235.726562 C 10.105469 235.964844 9.351562 236.269531 8.625 236.644531 C 7.894531 237.015625 7.207031 237.449219 6.558594 237.945312 C 5.90625 238.441406 5.304688 238.992188 4.753906 239.597656 C 4.203125 240.199219 3.707031 240.847656 3.269531 241.539062 C 2.835938 242.230469 2.464844 242.957031 2.15625 243.714844 C 1.847656 244.472656 1.609375 245.25 1.441406 246.050781 C 1.273438 246.851562 1.179688 247.660156 1.15625 248.480469 C 1.128906 249.296875 1.179688 250.109375 1.300781 250.917969 C 1.421875 251.730469 1.613281 252.519531 1.875 253.296875 C 2.136719 254.070312 2.46875 254.816406 2.863281 255.53125 C 3.257812 256.25 3.714844 256.921875 4.230469 257.558594 C 4.746094 258.191406 5.3125 258.777344 5.933594 259.308594 C 6.554688 259.84375 7.214844 260.316406 7.921875 260.730469 C 8.625 261.148438 9.359375 261.496094 10.128906 261.78125 C 10.894531 262.0625 11.679688 262.277344 12.484375 262.421875 C 13.289062 262.5625 14.101562 262.632812 14.917969 262.632812 Z M 20.09375 128.710938 C 20.09375 128.257812 20.136719 127.8125 20.226562 127.367188 C 20.3125 126.925781 20.445312 126.496094 20.617188 126.078125 C 20.789062 125.660156 21 125.265625 21.25 124.890625 C 21.503906 124.515625 21.785156 124.167969 22.105469 123.847656 C 22.425781 123.527344 22.773438 123.242188 23.148438 122.992188 C 23.523438 122.742188 23.917969 122.53125 24.335938 122.355469 C 24.75 122.183594 25.179688 122.054688 25.625 121.964844 C 26.066406 121.878906 26.511719 121.832031 26.964844 121.832031 L 190.695312 121.832031 C 191.148438 121.832031 191.59375 121.878906 192.035156 121.964844 C 192.480469 122.054688 192.910156 122.183594 193.324219 122.355469 C 193.742188 122.53125 194.136719 122.742188 194.511719 122.992188 C 194.886719 123.242188 195.234375 123.527344 195.554688 123.847656 C 195.875 124.167969 196.160156 124.515625 196.410156 124.890625 C 196.660156 125.265625 196.871094 125.660156 197.042969 126.078125 C 197.214844 126.496094 197.347656 126.925781 197.433594 127.367188 C 197.523438 127.8125 197.566406 128.257812 197.566406 128.710938 L 197.566406 235.128906 L 20.09375 235.128906 Z M 14.917969 244.296875 L 202.695312 244.296875 C 202.996094 244.296875 203.292969 244.328125 203.589844 244.386719 C 203.882812 244.445312 204.171875 244.53125 204.449219 244.644531 C 204.726562 244.761719 204.992188 244.902344 205.242188 245.070312 C 205.492188 245.238281 205.722656 245.425781 205.933594 245.640625 C 206.148438 245.851562 206.335938 246.085938 206.503906 246.335938 C 206.671875 246.585938 206.8125 246.847656 206.925781 247.128906 C 207.042969 247.40625 207.128906 247.691406 207.1875 247.988281 C 207.246094 248.28125 207.277344 248.582031 207.277344 248.882812 C 207.277344 249.183594 207.246094 249.480469 207.1875 249.777344 C 207.128906 250.070312 207.042969 250.355469 206.925781 250.636719 C 206.8125 250.914062 206.671875 251.175781 206.503906 251.425781 C 206.335938 251.679688 206.148438 251.910156 205.933594 252.121094 C 205.722656 252.335938 205.492188 252.523438 205.242188 252.691406 C 204.992188 252.859375 204.726562 253 204.449219 253.117188 C 204.171875 253.230469 203.882812 253.316406 203.589844 253.375 C 203.292969 253.433594 202.996094 253.464844 202.695312 253.464844 L 14.917969 253.464844 C 14.617188 253.464844 14.320312 253.433594 14.023438 253.375 C 13.730469 253.316406 13.445312 253.230469 13.164062 253.117188 C 12.886719 253 12.625 252.859375 12.375 252.691406 C 12.125 252.523438 11.890625 252.335938 11.679688 252.121094 C 11.46875 251.910156 11.277344 251.679688 11.109375 251.425781 C 10.941406 251.175781 10.800781 250.914062 10.6875 250.636719 C 10.570312 250.355469 10.484375 250.070312 10.425781 249.777344 C 10.367188 249.480469 10.339844 249.183594 10.339844 248.882812 C 10.339844 248.582031 10.367188 248.28125 10.425781 247.988281 C 10.484375 247.691406 10.570312 247.40625 10.6875 247.128906 C 10.800781 246.847656 10.941406 246.585938 11.109375 246.335938 C 11.277344 246.085938 11.46875 245.851562 11.679688 245.640625 C 11.890625 245.425781 12.125 245.238281 12.375 245.070312 C 12.625 244.902344 12.886719 244.761719 13.164062 244.644531 C 13.445312 244.53125 13.730469 244.445312 14.023438 244.386719 C 14.320312 244.328125 14.617188 244.296875 14.917969 244.296875 Z M 14.917969 244.296875 " clip-rule="nonzero"/></clipPath><clipPath id="63e16bd3ef"><path d="M 58.019531 127.570312 L 160.019531 127.570312 L 160.019531 229.570312 L 58.019531 229.570312 Z M 58.019531 127.570312 " clip-rule="nonzero"/></clipPath></defs><g clip-path="url(#2544ef11a3)"><g clip-path="url(#9ed60659e6)"><path fill="#fffafa" d="M 1.128906 112.667969 L 1.128906 262.632812 L 216.4375 262.632812 L 216.4375 112.667969 Z M 1.128906 112.667969 " fill-opacity="1" fill-rule="nonzero"/></g></g><g clip-path="url(#63e16bd3ef)"><path fill="#fca311" d="M 109.019531 229.570312 C 80.898438 229.570312 58.019531 206.691406 58.019531 178.570312 C 58.019531 150.449219 80.898438 127.570312 109.019531 127.570312 C 137.140625 127.570312 160.019531 150.449219 160.019531 178.570312 C 160.019531 206.691406 137.140625 229.570312 109.019531 229.570312 Z M 109.019531 229.570312 " fill-opacity="1" fill-rule="nonzero"/></g><path fill="#fffafa" d="M 94.875 192.101562 C 94.117188 192.101562 93.355469 191.859375 92.710938 191.363281 L 79.863281 181.53125 C 78.992188 180.867188 78.476562 179.835938 78.464844 178.742188 C 78.453125 177.648438 78.945312 176.605469 79.796875 175.921875 L 92.378906 165.824219 C 93.917969 164.589844 96.160156 164.835938 97.390625 166.375 C 98.625 167.910156 98.378906 170.152344 96.84375 171.386719 L 87.8125 178.636719 L 97.042969 185.703125 C 98.609375 186.898438 98.90625 189.136719 97.707031 190.699219 C 97.007812 191.617188 95.945312 192.101562 94.875 192.101562 Z M 94.875 192.101562 " fill-opacity="1" fill-rule="nonzero"/><path fill="#fffafa" d="M 123.164062 192.101562 C 122.09375 192.101562 121.03125 191.617188 120.328125 190.699219 C 119.132812 189.136719 119.429688 186.898438 120.992188 185.703125 L 130.226562 178.636719 L 121.195312 171.386719 C 119.660156 170.152344 119.414062 167.910156 120.644531 166.375 C 121.878906 164.835938 124.125 164.589844 125.65625 165.824219 L 138.238281 175.921875 C 139.09375 176.605469 139.585938 177.648438 139.574219 178.742188 C 139.558594 179.839844 139.042969 180.867188 138.175781 181.53125 L 125.328125 191.363281 C 124.683594 191.859375 123.921875 192.101562 123.164062 192.101562 Z M 123.164062 192.101562 " fill-opacity="1" fill-rule="nonzero"/><path fill="#fffafa" d="M 103.222656 198.925781 C 102.914062 198.925781 102.597656 198.886719 102.285156 198.800781 C 100.386719 198.285156 99.261719 196.328125 99.777344 194.425781 L 108.882812 160.84375 C 109.394531 158.945312 111.355469 157.820312 113.257812 158.335938 C 115.15625 158.851562 116.28125 160.808594 115.765625 162.710938 L 106.660156 196.292969 C 106.230469 197.878906 104.792969 198.925781 103.222656 198.925781 Z M 103.222656 198.925781 " fill-opacity="1" fill-rule="nonzero"/><g fill="#fca311" fill-opacity="1"><g transform="translate(213.584444, 211.985668)"><g><path d="M 23.78125 -3.90625 L 1.578125 -13.765625 L 1.578125 -17.546875 L 23.78125 -28.65625 L 23.78125 -22.140625 L 10.171875 -15.921875 L 23.78125 -10.390625 Z M 23.78125 -3.90625 "/></g></g></g><g fill="#ffffff" fill-opacity="1"><g transform="translate(239.02585, 211.985668)"><g/></g></g><g fill="#ffffff" fill-opacity="1"><g transform="translate(250.70617, 211.985668)"><g><path d="M 23.171875 0 L 21.578125 -6.015625 L 11.15625 -6.015625 L 9.53125 0 L 0 0 L 10.46875 -32.234375 L 22.046875 -32.234375 L 32.65625 0 Z M 19.78125 -13.125 L 18.40625 -18.40625 C 18.082031 -19.570312 17.6875 -21.082031 17.21875 -22.9375 C 16.757812 -24.800781 16.457031 -26.132812 16.3125 -26.9375 C 16.175781 -26.195312 15.914062 -24.96875 15.53125 -23.25 C 15.144531 -21.539062 14.285156 -18.164062 12.953125 -13.125 Z M 19.78125 -13.125 "/></g></g></g><g fill="#ffffff" fill-opacity="1"><g transform="translate(283.353988, 211.985668)"><g><path d="M 18.15625 -25.3125 C 20.863281 -25.3125 23.007812 -24.175781 24.59375 -21.90625 C 26.1875 -19.644531 26.984375 -16.507812 26.984375 -12.5 C 26.984375 -8.457031 26.179688 -5.289062 24.578125 -3 C 22.972656 -0.707031 20.742188 0.4375 17.890625 0.4375 C 16.972656 0.4375 16.15625 0.335938 15.4375 0.140625 C 14.71875 -0.0546875 14.078125 -0.328125 13.515625 -0.671875 C 12.953125 -1.023438 12.296875 -1.613281 11.546875 -2.4375 L 11.015625 -2.4375 L 9.65625 0 L 2.96875 0 L 2.96875 -34.171875 L 11.546875 -34.171875 L 11.546875 -26.4375 C 11.546875 -25.507812 11.445312 -23.921875 11.25 -21.671875 L 11.546875 -21.671875 C 12.378906 -22.960938 13.34375 -23.890625 14.4375 -24.453125 C 15.53125 -25.023438 16.769531 -25.3125 18.15625 -25.3125 Z M 15.015625 -18.578125 C 13.816406 -18.578125 12.9375 -18.160156 12.375 -17.328125 C 11.820312 -16.492188 11.546875 -15.179688 11.546875 -13.390625 L 11.546875 -12.1875 C 11.546875 -10.15625 11.820312 -8.695312 12.375 -7.8125 C 12.9375 -6.925781 13.847656 -6.484375 15.109375 -6.484375 C 16.117188 -6.484375 16.894531 -7 17.4375 -8.03125 C 17.976562 -9.0625 18.25 -10.578125 18.25 -12.578125 C 18.25 -16.578125 17.171875 -18.578125 15.015625 -18.578125 Z M 15.015625 -18.578125 "/></g></g></g><g fill="#fca311" fill-opacity="1"><g transform="translate(312.268035, 211.985668)"><g><path d="M 30.71875 -16.734375 C 30.71875 -11.367188 29.242188 -7.238281 26.296875 -4.34375 C 23.347656 -1.445312 19.203125 0 13.859375 0 L 3.46875 0 L 3.46875 -32.109375 L 14.578125 -32.109375 C 19.734375 -32.109375 23.710938 -30.789062 26.515625 -28.15625 C 29.316406 -25.519531 30.71875 -21.710938 30.71875 -16.734375 Z M 21.71875 -16.421875 C 21.71875 -19.367188 21.132812 -21.550781 19.96875 -22.96875 C 18.800781 -24.382812 17.035156 -25.09375 14.671875 -25.09375 L 12.140625 -25.09375 L 12.140625 -7.109375 L 14.078125 -7.109375 C 16.710938 -7.109375 18.644531 -7.875 19.875 -9.40625 C 21.101562 -10.9375 21.71875 -13.273438 21.71875 -16.421875 Z M 21.71875 -16.421875 "/></g></g></g><g fill="#fca311" fill-opacity="1"><g transform="translate(345.267141, 211.985668)"><g><path d="M 14.96875 0.4375 C 10.832031 0.4375 7.617188 -0.660156 5.328125 -2.859375 C 3.035156 -5.066406 1.890625 -8.207031 1.890625 -12.28125 C 1.890625 -16.476562 2.945312 -19.695312 5.0625 -21.9375 C 7.1875 -24.1875 10.21875 -25.3125 14.15625 -25.3125 C 17.90625 -25.3125 20.800781 -24.332031 22.84375 -22.375 C 24.882812 -20.425781 25.90625 -17.613281 25.90625 -13.9375 L 25.90625 -10.125 L 10.5625 -10.125 C 10.625 -8.726562 11.132812 -7.632812 12.09375 -6.84375 C 13.050781 -6.0625 14.351562 -5.671875 16 -5.671875 C 17.507812 -5.671875 18.894531 -5.8125 20.15625 -6.09375 C 21.425781 -6.375 22.800781 -6.859375 24.28125 -7.546875 L 24.28125 -1.390625 C 22.9375 -0.691406 21.546875 -0.210938 20.109375 0.046875 C 18.679688 0.304688 16.96875 0.4375 14.96875 0.4375 Z M 14.46875 -19.46875 C 13.457031 -19.46875 12.609375 -19.148438 11.921875 -18.515625 C 11.242188 -17.878906 10.847656 -16.882812 10.734375 -15.53125 L 18.109375 -15.53125 C 18.085938 -16.726562 17.75 -17.679688 17.09375 -18.390625 C 16.4375 -19.109375 15.5625 -19.46875 14.46875 -19.46875 Z M 14.46875 -19.46875 "/></g></g></g><g fill="#fca311" fill-opacity="1"><g transform="translate(373.06279, 211.985668)"><g><path d="M 9.484375 0 L 0 -24.875 L 8.953125 -24.875 L 13.171875 -10.171875 C 13.191406 -10.097656 13.222656 -9.972656 13.265625 -9.796875 C 13.304688 -9.617188 13.347656 -9.410156 13.390625 -9.171875 C 13.429688 -8.929688 13.46875 -8.675781 13.5 -8.40625 C 13.539062 -8.132812 13.5625 -7.878906 13.5625 -7.640625 L 13.71875 -7.640625 C 13.71875 -8.398438 13.851562 -9.226562 14.125 -10.125 L 18.53125 -24.875 L 27.46875 -24.875 L 17.984375 0 Z M 9.484375 0 "/></g></g></g><g fill="#ffffff" fill-opacity="1"><g transform="translate(400.521938, 211.985668)"><g><path d="M 38.140625 0 L 27.890625 0 L 24.8125 -13.984375 C 24.664062 -14.566406 24.429688 -15.726562 24.109375 -17.46875 C 23.796875 -19.21875 23.566406 -20.675781 23.421875 -21.84375 C 23.304688 -20.894531 23.117188 -19.710938 22.859375 -18.296875 C 22.597656 -16.890625 22.335938 -15.59375 22.078125 -14.40625 C 21.816406 -13.21875 20.753906 -8.414062 18.890625 0 L 8.625 0 L 0.6875 -32.109375 L 9.046875 -32.109375 L 12.53125 -16 C 13.320312 -12.445312 13.863281 -9.617188 14.15625 -7.515625 C 14.351562 -9.003906 14.695312 -11.03125 15.1875 -13.59375 C 15.675781 -16.15625 16.132812 -18.273438 16.5625 -19.953125 L 19.390625 -32.109375 L 27.421875 -32.109375 L 30.171875 -19.953125 C 30.640625 -18.003906 31.113281 -15.753906 31.59375 -13.203125 C 32.082031 -10.660156 32.40625 -8.765625 32.5625 -7.515625 C 32.75 -9.140625 33.269531 -11.957031 34.125 -15.96875 L 37.671875 -32.109375 L 46.046875 -32.109375 Z M 38.140625 0 "/></g></g></g><g fill="#ffffff" fill-opacity="1"><g transform="translate(447.243219, 211.985668)"><g><path d="M 14.96875 0.4375 C 10.832031 0.4375 7.617188 -0.660156 5.328125 -2.859375 C 3.035156 -5.066406 1.890625 -8.207031 1.890625 -12.28125 C 1.890625 -16.476562 2.945312 -19.695312 5.0625 -21.9375 C 7.1875 -24.1875 10.21875 -25.3125 14.15625 -25.3125 C 17.90625 -25.3125 20.800781 -24.332031 22.84375 -22.375 C 24.882812 -20.425781 25.90625 -17.613281 25.90625 -13.9375 L 25.90625 -10.125 L 10.5625 -10.125 C 10.625 -8.726562 11.132812 -7.632812 12.09375 -6.84375 C 13.050781 -6.0625 14.351562 -5.671875 16 -5.671875 C 17.507812 -5.671875 18.894531 -5.8125 20.15625 -6.09375 C 21.425781 -6.375 22.800781 -6.859375 24.28125 -7.546875 L 24.28125 -1.390625 C 22.9375 -0.691406 21.546875 -0.210938 20.109375 0.046875 C 18.679688 0.304688 16.96875 0.4375 14.96875 0.4375 Z M 14.46875 -19.46875 C 13.457031 -19.46875 12.609375 -19.148438 11.921875 -18.515625 C 11.242188 -17.878906 10.847656 -16.882812 10.734375 -15.53125 L 18.109375 -15.53125 C 18.085938 -16.726562 17.75 -17.679688 17.09375 -18.390625 C 16.4375 -19.109375 15.5625 -19.46875 14.46875 -19.46875 Z M 14.46875 -19.46875 "/></g></g></g><g fill="#ffffff" fill-opacity="1"><g transform="translate(475.038868, 211.985668)"><g><path d="M 18.15625 -25.3125 C 20.863281 -25.3125 23.007812 -24.175781 24.59375 -21.90625 C 26.1875 -19.644531 26.984375 -16.507812 26.984375 -12.5 C 26.984375 -8.457031 26.179688 -5.289062 24.578125 -3 C 22.972656 -0.707031 20.742188 0.4375 17.890625 0.4375 C 16.972656 0.4375 16.15625 0.335938 15.4375 0.140625 C 14.71875 -0.0546875 14.078125 -0.328125 13.515625 -0.671875 C 12.953125 -1.023438 12.296875 -1.613281 11.546875 -2.4375 L 11.015625 -2.4375 L 9.65625 0 L 2.96875 0 L 2.96875 -34.171875 L 11.546875 -34.171875 L 11.546875 -26.4375 C 11.546875 -25.507812 11.445312 -23.921875 11.25 -21.671875 L 11.546875 -21.671875 C 12.378906 -22.960938 13.34375 -23.890625 14.4375 -24.453125 C 15.53125 -25.023438 16.769531 -25.3125 18.15625 -25.3125 Z M 15.015625 -18.578125 C 13.816406 -18.578125 12.9375 -18.160156 12.375 -17.328125 C 11.820312 -16.492188 11.546875 -15.179688 11.546875 -13.390625 L 11.546875 -12.1875 C 11.546875 -10.15625 11.820312 -8.695312 12.375 -7.8125 C 12.9375 -6.925781 13.847656 -6.484375 15.109375 -6.484375 C 16.117188 -6.484375 16.894531 -7 17.4375 -8.03125 C 17.976562 -9.0625 18.25 -10.578125 18.25 -12.578125 C 18.25 -16.578125 17.171875 -18.578125 15.015625 -18.578125 Z M 15.015625 -18.578125 "/></g></g></g><g fill="#ffffff" fill-opacity="1"><g transform="translate(503.954253, 211.985668)"><g/></g></g><g fill="#fca311" fill-opacity="1"><g transform="translate(515.623496, 211.985668)"><g><path d="M 19.78125 -32.5625 L 7.8125 0.4375 L 0.21875 0.4375 L 12.1875 -32.5625 Z M 19.78125 -32.5625 "/></g></g></g><g fill="#fca311" fill-opacity="1"><g transform="translate(535.49322, 211.985668)"><g><path d="M 1.578125 -10.390625 L 15.1875 -15.921875 L 1.578125 -22.140625 L 1.578125 -28.65625 L 23.78125 -17.546875 L 23.78125 -13.765625 L 1.578125 -3.90625 Z M 1.578125 -10.390625 "/></g></g></g></svg>
